<svg width="130" height="32" viewBox="0 0 130 32" fill="none" xmlns="http://www.w3.org/2000/svg">
<g clip-path="url(#clip0_1987_3594)">
<path d="M18.2301 11.2448C18.3918 10.5664 18.4888 9.8688 18.4888 9.1392C18.4823 4.096 14.3486 0 9.24441 0C4.14025 0 0 4.096 0 9.1456V13.7152C0 13.8944 0.0129383 14.0736 0.0323457 14.2464C0.0129383 14.4448 0 14.6496 0 14.8544V26.2848C0 29.44 2.58766 32 5.77695 32H11.5539C17.9325 32 23.1078 26.8864 23.1078 20.5696C23.1078 16.7168 21.18 13.3184 18.2301 11.2448Z" fill="#6B8E23"/>
<path d="M35.2115 27.1552V7.65439H41.6548C43.7961 7.65439 45.4005 8.08959 46.4808 8.96639C47.5611 9.84319 48.0981 11.136 48.0981 12.8512C48.0981 13.76 47.8393 14.5664 47.3153 15.2704C46.7913 15.9744 46.0797 16.512 45.174 16.896C46.2414 17.1904 47.0824 17.7536 47.697 18.5792C48.3116 19.4048 48.6221 20.3904 48.6221 21.5296C48.6221 23.2768 48.0463 24.6528 46.9013 25.6576C45.7563 26.6624 44.1325 27.1552 42.043 27.1552H35.2051H35.2115ZM37.8121 15.9744H41.7389C42.8775 15.9744 43.7832 15.6928 44.4689 15.1296C45.1546 14.5664 45.491 13.7984 45.491 12.832C45.491 11.7568 45.174 10.976 44.5465 10.4896C43.919 10.0032 42.9551 9.75999 41.6613 9.75999H37.8186V15.9744H37.8121ZM37.8121 18.0352V25.056H42.1012C43.3109 25.056 44.2619 24.7488 44.967 24.128C45.6722 23.5072 46.015 22.6496 46.015 21.5616C46.015 19.2128 44.7277 18.0416 42.1465 18.0416H37.8121V18.0352Z" fill="#6B8E23"/>
<path d="M59.1602 14.8864C58.7786 14.8224 58.371 14.7904 57.9311 14.7904C56.288 14.7904 55.1753 15.4816 54.5866 16.864V27.1488H52.083V12.6592H54.5219L54.5607 14.336C55.3823 13.0432 56.5467 12.3968 58.054 12.3968C58.5392 12.3968 58.9144 12.4608 59.1667 12.5824V14.8864H59.1602Z" fill="#6B8E23"/>
<path d="M67.2789 27.424C65.2929 27.424 63.6756 26.7776 62.4335 25.4912C61.1915 24.2048 60.564 22.4768 60.564 20.3136V19.8592C60.564 18.4192 60.8421 17.1392 61.3985 16.0064C61.9548 14.8736 62.7311 13.9904 63.7274 13.3568C64.7236 12.7232 65.804 12.3968 66.9684 12.3968C68.8703 12.3968 70.3518 13.0176 71.4062 14.2592C72.4607 15.5008 72.9912 17.28 72.9912 19.5904V20.6208H63.0675C63.1063 22.048 63.5268 23.2064 64.3355 24.0832C65.1441 24.96 66.1727 25.4016 67.4148 25.4016C68.3011 25.4016 69.0515 25.2224 69.6596 24.864C70.2677 24.5056 70.8111 24.032 71.2704 23.4432L72.7971 24.6208C71.568 26.4896 69.7307 27.4176 67.2725 27.4176L67.2789 27.424ZM66.9684 14.432C65.9592 14.432 65.1118 14.7968 64.426 15.5264C63.7403 16.256 63.3134 17.2736 63.1516 18.5856H70.4876V18.4C70.4165 17.1392 70.0736 16.1664 69.459 15.4752C68.8445 14.784 68.0164 14.4384 66.9684 14.4384V14.432Z" fill="#6B8E23"/>
<path d="M79.9779 20.448L78.4059 22.0672V27.1552H75.9023V6.5856H78.4059V19.0272L79.745 17.4336L84.3058 12.6656H87.3527L81.6534 18.72L88.019 27.1552H85.0821L79.9779 20.448Z" fill="#6B8E23"/>
<path d="M94.0292 20.448L92.4572 22.0672V27.1552H89.9536V6.5856H92.4572V19.0272L93.7963 17.4336L98.357 12.6656H101.404L95.7047 18.72L102.07 27.1552H99.1333L94.0292 20.448Z" fill="#6B8E23"/>
<path d="M104.011 8.81919C104.011 8.41599 104.134 8.07679 104.386 7.80159C104.638 7.52639 105.001 7.38559 105.492 7.38559C105.984 7.38559 106.353 7.52639 106.605 7.80159C106.857 8.07679 106.987 8.41599 106.987 8.81919C106.987 9.22239 106.857 9.55519 106.605 9.82399C106.353 10.0928 105.984 10.2272 105.492 10.2272C105.001 10.2272 104.638 10.0928 104.386 9.82399C104.134 9.55519 104.011 9.22239 104.011 8.81919ZM106.721 27.1552H104.218V12.6656H106.721V27.1552Z" fill="#6B8E23"/>
<path d="M116.8 27.424C114.814 27.424 113.197 26.7776 111.955 25.4912C110.713 24.2048 110.085 22.4768 110.085 20.3136V19.8592C110.085 18.4192 110.364 17.1392 110.92 16.0064C111.476 14.8736 112.253 13.9904 113.249 13.3568C114.245 12.7232 115.325 12.3968 116.49 12.3968C118.392 12.3968 119.873 13.0176 120.928 14.2592C121.982 15.5008 122.513 17.28 122.513 19.5904V20.6208H112.589C112.628 22.048 113.048 23.2064 113.857 24.0832C114.666 24.96 115.694 25.4016 116.936 25.4016C117.823 25.4016 118.573 25.2224 119.181 24.864C119.789 24.5056 120.333 24.032 120.792 23.4432L122.319 24.6208C121.089 26.4896 119.252 27.4176 116.794 27.4176L116.8 27.424ZM116.49 14.432C115.481 14.432 114.633 14.7968 113.948 15.5264C113.262 16.256 112.835 17.2736 112.673 18.5856H120.009V18.4C119.938 17.1392 119.595 16.1664 118.981 15.4752C118.366 14.784 117.538 14.4384 116.49 14.4384V14.432Z" fill="#6B8E23"/>
<path d="M129.448 27.4304H124.829C124.829 26.1696 125.864 25.1456 127.138 25.1456C128.413 25.1456 129.448 26.1696 129.448 27.4304Z" fill="#6B8E23"/>
</g>
<defs>
<clipPath id="clip0_1987_3594">
<rect width="130" height="32" fill="white"/>
</clipPath>
</defs>
</svg>
